<svg version="1.1" viewBox="0.0 0.0 96.0 96.0" fill="none" stroke="none" stroke-linecap="square" stroke-miterlimit="10" xmlns:xlink="http://www.w3.org/1999/xlink" xmlns="http://www.w3.org/2000/svg"><clipPath id="p.0"><path d="m0 0l96.0 0l0 96.0l-96.0 0l0 -96.0z" clip-rule="nonzero"/></clipPath><g clip-path="url(#p.0)"><path fill="#000000" fill-opacity="0.0" d="m0 0l96.0 0l0 96.0l-96.0 0z" fill-rule="evenodd"/><path fill="#000000" d="m0 0l96.0 0l0 96.0l-96.0 0z" fill-rule="evenodd"/><path fill="#000000" d="m8.992783 21.977951l0 0c0 -7.1812954 5.8215895 -13.002886 13.002884 -13.002886l52.00998 0l0 0c3.448578 0 6.755913 1.3699436 9.1944275 3.8084574c2.4385147 2.4385138 3.8084564 5.7458487 3.8084564 9.194428l0 52.00998c0 7.1812973 -5.8215866 13.002884 -13.002884 13.002884l-52.00998 0c-7.1812944 0 -13.002884 -5.8215866 -13.002884 -13.002884z" fill-rule="evenodd"/><path stroke="#ffffff" stroke-width="4.0" stroke-linejoin="round" stroke-linecap="butt" d="m8.992783 21.977951l0 0c0 -7.1812954 5.8215895 -13.002886 13.002884 -13.002886l52.00998 0l0 0c3.448578 0 6.755913 1.3699436 9.1944275 3.8084574c2.4385147 2.4385138 3.8084564 5.7458487 3.8084564 9.194428l0 52.00998c0 7.1812973 -5.8215866 13.002884 -13.002884 13.002884l-52.00998 0c-7.1812944 0 -13.002884 -5.8215866 -13.002884 -13.002884z" fill-rule="evenodd"/><path fill="#ffffff" d="m23.496063 41.423885l35.889763 0l0 -6.5590553l13.118111 13.118111l-13.118111 13.118111l0 -6.5590553l-35.889763 0z" fill-rule="evenodd"/><path stroke="#000000" stroke-width="1.0" stroke-linejoin="round" stroke-linecap="butt" d="m23.496063 41.423885l35.889763 0l0 -6.5590553l13.118111 13.118111l-13.118111 13.118111l0 -6.5590553l-35.889763 0z" fill-rule="evenodd"/></g></svg>